<svg width="17" height="17" viewBox="0 0 17 17" fill="none" xmlns="http://www.w3.org/2000/svg">
<rect width="16" height="16" transform="translate(0.389648 0.228516)" fill="white" fill-opacity="0.01"/>
<path fill-rule="evenodd" clip-rule="evenodd" d="M5.7186 4.93592L0.868933 5.6385L0.817247 5.64833C0.396955 5.74798 0.239975 6.28116 0.559298 6.59199L4.07424 10.0129L3.24533 14.8445L3.23889 14.8948C3.20242 15.3261 3.66137 15.6412 4.05617 15.4336L8.39405 13.1525L12.7227 15.4334L12.7685 15.4551C13.1674 15.6235 13.6094 15.2844 13.534 14.8445L12.7049 10.0129L16.22 6.59199L16.256 6.55366C16.5376 6.22609 16.3514 5.70242 15.9104 5.6385L11.0602 4.93592L8.89077 0.540026C8.68578 0.124679 8.09351 0.124679 7.88853 0.540026L5.7186 4.93592Z" fill="#E74714"/>
</svg>
