<svg width="17" height="17" viewBox="0 0 17 17" fill="none" xmlns="http://www.w3.org/2000/svg">
<rect width="16" height="16" transform="translate(0.389648 0.228516)" fill="white" fill-opacity="0.01"/>
<path d="M5.79029 5.43075L6.05055 5.39305L6.16695 5.15724L8.33688 0.761344L8.3369 0.761307C8.34462 0.745654 8.35228 0.739743 8.35781 0.736465C8.36512 0.732129 8.37612 0.728516 8.38965 0.728516C8.40317 0.728516 8.41418 0.732129 8.42149 0.736465C8.42702 0.739743 8.43467 0.745652 8.4424 0.761299C8.4424 0.761302 8.4424 0.761304 8.4424 0.761307L10.6118 5.15719L10.7282 5.39305L10.9885 5.43075L15.8386 6.13333C15.8387 6.13333 15.8387 6.13333 15.8387 6.13334C15.8555 6.13577 15.8634 6.14098 15.868 6.1449C15.8741 6.15001 15.8807 6.15851 15.8852 6.17058C15.8897 6.18277 15.8904 6.19438 15.889 6.20317C15.8881 6.20917 15.886 6.21558 15.8805 6.22311L15.8634 6.24137L12.3562 9.65457L12.1676 9.8381L12.2121 10.0974L13.0412 14.9291C13.0412 14.9291 13.0412 14.9291 13.0412 14.9291C13.044 14.9458 13.0415 14.955 13.0392 14.9606C13.0362 14.968 13.0301 14.9769 13.02 14.9849C13.0098 14.993 12.999 14.9972 12.9902 14.9985C12.9841 14.9995 12.9773 14.9995 12.9683 14.9965L12.9464 14.9861L8.62714 12.7101L8.39429 12.5874L8.16133 12.7099L3.82348 14.9911C3.82347 14.9911 3.82346 14.9911 3.82345 14.9911C3.80844 14.999 3.79899 14.9994 3.79289 14.999C3.78497 14.9984 3.77458 14.9954 3.76387 14.9882C3.75306 14.981 3.7457 14.972 3.74168 14.9641C3.73892 14.9586 3.73681 14.9522 3.73685 14.9426L3.73993 14.9186L4.56704 10.0974L4.61153 9.8381L4.42296 9.65458L0.908054 6.2337C0.908044 6.23369 0.908035 6.23368 0.908026 6.23367C0.89588 6.22184 0.892553 6.21299 0.891085 6.20708C0.889178 6.19938 0.888798 6.1886 0.892279 6.17621C0.895794 6.1637 0.902045 6.1539 0.908341 6.1476C0.912634 6.14331 0.91807 6.13934 0.926905 6.13644L0.951549 6.13175L5.79029 5.43075Z" stroke="#AF836B"/>
</svg>
